<?xml version="1.0" encoding="utf-8"?>
<!-- Generator: Adobe Illustrator 22.0.1, SVG Export Plug-In . SVG Version: 6.00 Build 0)  -->
<svg version="1.1" id="Layer_1" xmlns="http://www.w3.org/2000/svg" xmlns:xlink="http://www.w3.org/1999/xlink" x="0px" y="0px"
	 viewBox="0 0 246 177" style="enable-background:new 0 0 246 177;" xml:space="preserve">
<style type="text/css">
	.st0{fill:#1C164F;}
	.st1{fill:#FFFFFF;}
</style>
<g id="Layer_2_1_">
	<rect x="-2" class="st0" width="250" height="177"/>
</g>
<g id="Layer_1_1_">
	<g>
		<rect x="154" y="57.4" class="st1" width="10.9" height="9.9"/>
		<rect x="140.9" y="57.4" class="st1" width="10.9" height="9.9"/>
		<rect x="127.7" y="57.4" class="st1" width="10.9" height="9.9"/>
		<rect x="114.5" y="57.4" class="st1" width="10.9" height="9.8"/>
		<rect x="154" y="69.2" class="st1" width="10.9" height="9.8"/>
		<rect x="140.9" y="69.2" class="st1" width="10.9" height="9.9"/>
		<rect x="127.7" y="69.2" class="st1" width="10.9" height="9.9"/>
		<rect x="114.5" y="69.2" class="st1" width="10.9" height="9.9"/>
		<rect x="101.3" y="69.2" class="st1" width="10.9" height="9.8"/>
		<rect x="140.9" y="81" class="st1" width="10.9" height="9.8"/>
		<rect x="127.6" y="81" class="st1" width="10.9" height="9.9"/>
		<rect x="114.5" y="81" class="st1" width="10.9" height="9.9"/>
		<rect x="101.3" y="81" class="st1" width="10.9" height="9.9"/>
		<rect x="88.1" y="81" class="st1" width="10.9" height="9.8"/>
		<rect x="127.7" y="92.8" class="st1" width="10.9" height="9.8"/>
		<rect x="114.5" y="92.8" class="st1" width="10.9" height="9.9"/>
		<rect x="101.3" y="92.8" class="st1" width="10.9" height="9.9"/>
		<rect x="88.1" y="92.8" class="st1" width="10.9" height="9.9"/>
		<rect x="74.9" y="92.8" class="st1" width="10.9" height="9.8"/>
		<rect x="114.5" y="104.7" class="st1" width="10.9" height="9.8"/>
		<rect x="101.3" y="104.7" class="st1" width="10.9" height="9.9"/>
		<rect x="88.1" y="104.7" class="st1" width="10.9" height="9.9"/>
		<rect x="74.8" y="104.7" class="st1" width="10.9" height="9.9"/>
	</g>
</g>
</svg>
